<svg xmlns="http://www.w3.org/2000/svg" xmlns:xlink="http://www.w3.org/1999/xlink" width="400" zoomAndPan="magnify" viewBox="0 0 300 299.999988" height="400" preserveAspectRatio="xMidYMid meet" version="1.0"><path fill="#00979c" d="M 216.824219 214.921875 C 199.292969 214.921875 184.234375 208.910156 171.113281 196.890625 C 162.964844 189.421875 156.25 180.261719 150.066406 170.738281 C 143.890625 180.183594 137.167969 189.414062 129.019531 196.890625 C 114.84375 209.898438 98.601562 215.753906 79.277344 214.808594 C 42.664062 214.664062 12.855469 185.671875 12.855469 150.050781 C 12.855469 114.332031 42.828125 85.28125 79.75 85.28125 C 84.53125 85.195312 89.273438 85.582031 93.980469 86.429688 C 98.6875 87.28125 103.265625 88.582031 107.714844 90.332031 C 112.167969 92.085938 116.40625 94.253906 120.429688 96.835938 C 124.457031 99.421875 128.191406 102.375 131.636719 105.695312 C 138.71875 112.308594 144.707031 119.949219 150.160156 127.957031 C 155.617188 119.949219 161.601562 112.296875 168.6875 105.695312 C 172.132812 102.375 175.867188 99.421875 179.890625 96.835938 C 183.917969 94.253906 188.152344 92.085938 192.605469 90.332031 C 197.054688 88.582031 201.632812 87.28125 206.339844 86.429688 C 211.046875 85.582031 215.789062 85.195312 220.574219 85.28125 C 257.417969 85.28125 287.46875 114.332031 287.46875 150.050781 C 287.46875 185.660156 257.65625 214.664062 220.957031 214.816406 C 219.636719 214.882812 218.316406 214.914062 216.996094 214.914062 Z M 163.480469 149.191406 C 170.796875 161.0625 177.886719 172.113281 186.53125 180.046875 C 196.292969 189 206.574219 192.683594 219.871094 192.066406 L 220.46875 192.050781 C 244.714844 192.050781 264.449219 173.160156 264.449219 150.152344 C 264.449219 127.144531 244.722656 108.253906 220.46875 108.253906 C 217.121094 108.179688 213.792969 108.433594 210.496094 109.019531 C 207.195312 109.605469 203.984375 110.511719 200.867188 111.742188 C 197.75 112.96875 194.78125 114.492188 191.964844 116.308594 C 189.148438 118.128906 186.542969 120.210938 184.140625 122.550781 C 176.320312 129.832031 169.859375 139.164062 163.488281 149.300781 Z M 79.75 108.144531 C 55.503906 108.144531 35.769531 127.03125 35.769531 150.039062 C 35.769531 173.050781 55.496094 191.9375 79.75 191.9375 L 80.347656 191.953125 C 93.644531 192.660156 103.933594 188.976562 113.6875 179.933594 C 122.332031 172.003906 129.433594 161.046875 136.738281 149.078125 C 130.359375 138.949219 123.898438 129.605469 116.085938 122.328125 C 105.625 112.582031 94.070312 108.03125 79.75 108.03125 Z M 223.503906 141.746094 L 223.503906 129.347656 L 210.625 129.347656 L 210.625 141.746094 L 198.238281 141.746094 L 198.238281 154.589844 L 210.625 154.589844 L 210.625 167.082031 L 223.515625 167.082031 L 223.515625 154.589844 L 235.898438 154.589844 L 235.898438 141.746094 L 223.515625 141.746094 M 61.121094 141.515625 L 101.824219 141.515625 L 101.824219 154.753906 L 61.121094 154.753906 Z M 61.121094 141.515625 " fill-opacity="1" fill-rule="nonzero"/></svg>