<svg xmlns="http://www.w3.org/2000/svg" xmlns:xlink="http://www.w3.org/1999/xlink" width="400" zoomAndPan="magnify" viewBox="0 0 300 299.999988" height="400" preserveAspectRatio="xMidYMid meet" version="1.0"><defs><clipPath id="98069025c3"><path d="M 47.949219 -0.382812 L 250.765625 -0.382812 C 252.351562 -0.382812 253.933594 -0.304688 255.511719 -0.148438 C 257.089844 0.00390625 258.65625 0.238281 260.210938 0.546875 C 261.765625 0.855469 263.300781 1.238281 264.816406 1.699219 C 266.332031 2.15625 267.824219 2.691406 269.289062 3.296875 C 270.753906 3.902344 272.183594 4.578125 273.582031 5.324219 C 274.980469 6.070312 276.339844 6.882812 277.65625 7.761719 C 278.972656 8.640625 280.246094 9.582031 281.472656 10.585938 C 282.695312 11.589844 283.871094 12.652344 284.988281 13.769531 C 286.109375 14.890625 287.175781 16.0625 288.179688 17.285156 C 289.183594 18.507812 290.128906 19.777344 291.007812 21.09375 C 291.890625 22.410156 292.703125 23.765625 293.449219 25.160156 C 294.199219 26.554688 294.875 27.984375 295.480469 29.449219 C 296.089844 30.910156 296.621094 32.398438 297.082031 33.914062 C 297.542969 35.425781 297.925781 36.960938 298.234375 38.511719 C 298.546875 40.066406 298.777344 41.628906 298.933594 43.203125 C 299.089844 44.777344 299.164062 46.355469 299.164062 47.9375 L 299.164062 251.667969 C 299.164062 253.253906 299.089844 254.832031 298.933594 256.40625 C 298.777344 257.980469 298.546875 259.542969 298.234375 261.097656 C 297.925781 262.648438 297.542969 264.183594 297.082031 265.695312 C 296.621094 267.210938 296.089844 268.699219 295.480469 270.160156 C 294.875 271.625 294.199219 273.050781 293.449219 274.449219 C 292.703125 275.84375 291.890625 277.199219 291.007812 278.515625 C 290.128906 279.832031 289.183594 281.101562 288.179688 282.324219 C 287.175781 283.546875 286.109375 284.71875 284.988281 285.839844 C 283.871094 286.957031 282.695312 288.019531 281.472656 289.023438 C 280.246094 290.027344 278.972656 290.96875 277.65625 291.847656 C 276.339844 292.726562 274.980469 293.539062 273.582031 294.285156 C 272.183594 295.03125 270.753906 295.707031 269.289062 296.3125 C 267.824219 296.917969 266.332031 297.449219 264.816406 297.910156 C 263.300781 298.371094 261.765625 298.753906 260.210938 299.0625 C 258.65625 299.371094 257.089844 299.601562 255.511719 299.757812 C 253.933594 299.914062 252.351562 299.992188 250.765625 299.992188 L 47.949219 299.992188 C 46.363281 299.992188 44.785156 299.914062 43.207031 299.757812 C 41.628906 299.601562 40.0625 299.371094 38.507812 299.0625 C 36.953125 298.753906 35.417969 298.371094 33.902344 297.910156 C 32.382812 297.449219 30.894531 296.917969 29.429688 296.3125 C 27.964844 295.707031 26.53125 295.03125 25.136719 294.285156 C 23.738281 293.539062 22.378906 292.726562 21.0625 291.847656 C 19.742188 290.96875 18.472656 290.027344 17.246094 289.023438 C 16.019531 288.019531 14.847656 286.957031 13.726562 285.839844 C 12.605469 284.71875 11.542969 283.546875 10.539062 282.324219 C 9.53125 281.101562 8.589844 279.832031 7.707031 278.515625 C 6.828125 277.199219 6.011719 275.84375 5.265625 274.449219 C 4.519531 273.050781 3.839844 271.625 3.234375 270.160156 C 2.628906 268.699219 2.09375 267.210938 1.636719 265.695312 C 1.175781 264.183594 0.789062 262.648438 0.480469 261.097656 C 0.171875 259.542969 -0.0585938 257.980469 -0.214844 256.40625 C -0.371094 254.832031 -0.449219 253.253906 -0.449219 251.667969 L -0.449219 47.9375 C -0.449219 46.355469 -0.371094 44.777344 -0.214844 43.203125 C -0.0585938 41.628906 0.171875 40.066406 0.480469 38.511719 C 0.789062 36.960938 1.175781 35.425781 1.636719 33.914062 C 2.09375 32.398438 2.628906 30.910156 3.234375 29.449219 C 3.839844 27.984375 4.519531 26.554688 5.265625 25.160156 C 6.011719 23.765625 6.828125 22.410156 7.707031 21.09375 C 8.589844 19.777344 9.53125 18.507812 10.539062 17.285156 C 11.542969 16.0625 12.605469 14.890625 13.726562 13.769531 C 14.847656 12.652344 16.019531 11.589844 17.246094 10.585938 C 18.472656 9.582031 19.742188 8.640625 21.0625 7.761719 C 22.378906 6.882812 23.738281 6.070312 25.136719 5.324219 C 26.53125 4.578125 27.964844 3.902344 29.429688 3.296875 C 30.894531 2.691406 32.382812 2.15625 33.902344 1.699219 C 35.417969 1.238281 36.953125 0.855469 38.507812 0.546875 C 40.0625 0.238281 41.628906 0.00390625 43.207031 -0.148438 C 44.785156 -0.304688 46.363281 -0.382812 47.949219 -0.382812 Z M 47.949219 -0.382812 " clip-rule="nonzero"/></clipPath><linearGradient x1="255.753654" gradientTransform="matrix(2.340375, 0, 0, 2.336625, -597.80618, -994.21865)" y1="554.196326" x2="382.744507" gradientUnits="userSpaceOnUse" y2="424.986839" id="ff72ec834f"><stop stop-opacity="1" stop-color="rgb(2.749634%, 0.389099%, 20.779419%)" offset="0"/><stop stop-opacity="1" stop-color="rgb(2.915955%, 0.469971%, 20.829773%)" offset="0.0625"/><stop stop-opacity="1" stop-color="rgb(3.239441%, 0.628662%, 20.925903%)" offset="0.0703125"/><stop stop-opacity="1" stop-color="rgb(3.549194%, 0.78125%, 21.018982%)" offset="0.078125"/><stop stop-opacity="1" stop-color="rgb(3.860474%, 0.932312%, 21.112061%)" offset="0.0859375"/><stop stop-opacity="1" stop-color="rgb(4.170227%, 1.0849%, 21.205139%)" offset="0.09375"/><stop stop-opacity="1" stop-color="rgb(4.481506%, 1.235962%, 21.298218%)" offset="0.101563"/><stop stop-opacity="1" stop-color="rgb(4.79126%, 1.38855%, 21.391296%)" offset="0.109375"/><stop stop-opacity="1" stop-color="rgb(5.102539%, 1.539612%, 21.484375%)" offset="0.117188"/><stop stop-opacity="1" stop-color="rgb(5.412292%, 1.6922%, 21.577454%)" offset="0.125"/><stop stop-opacity="1" stop-color="rgb(5.723572%, 1.843262%, 21.670532%)" offset="0.132813"/><stop stop-opacity="1" stop-color="rgb(6.033325%, 1.99585%, 21.763611%)" offset="0.140625"/><stop stop-opacity="1" stop-color="rgb(6.344604%, 2.146912%, 21.856689%)" offset="0.148438"/><stop stop-opacity="1" stop-color="rgb(6.654358%, 2.2995%, 21.951294%)" offset="0.15625"/><stop stop-opacity="1" stop-color="rgb(6.965637%, 2.450562%, 22.044373%)" offset="0.164063"/><stop stop-opacity="1" stop-color="rgb(7.275391%, 2.603149%, 22.137451%)" offset="0.171875"/><stop stop-opacity="1" stop-color="rgb(7.58667%, 2.754211%, 22.23053%)" offset="0.179688"/><stop stop-opacity="1" stop-color="rgb(7.896423%, 2.906799%, 22.323608%)" offset="0.1875"/><stop stop-opacity="1" stop-color="rgb(8.207703%, 3.057861%, 22.416687%)" offset="0.195313"/><stop stop-opacity="1" stop-color="rgb(8.517456%, 3.210449%, 22.509766%)" offset="0.203125"/><stop stop-opacity="1" stop-color="rgb(8.828735%, 3.361511%, 22.602844%)" offset="0.210938"/><stop stop-opacity="1" stop-color="rgb(9.138489%, 3.514099%, 22.695923%)" offset="0.21875"/><stop stop-opacity="1" stop-color="rgb(9.449768%, 3.665161%, 22.789001%)" offset="0.226563"/><stop stop-opacity="1" stop-color="rgb(9.759521%, 3.817749%, 22.88208%)" offset="0.234375"/><stop stop-opacity="1" stop-color="rgb(10.070801%, 3.970337%, 22.975159%)" offset="0.242188"/><stop stop-opacity="1" stop-color="rgb(10.380554%, 4.121399%, 23.068237%)" offset="0.25"/><stop stop-opacity="1" stop-color="rgb(10.691833%, 4.273987%, 23.161316%)" offset="0.257812"/><stop stop-opacity="1" stop-color="rgb(11.001587%, 4.425049%, 23.254395%)" offset="0.265625"/><stop stop-opacity="1" stop-color="rgb(11.312866%, 4.577637%, 23.347473%)" offset="0.273438"/><stop stop-opacity="1" stop-color="rgb(11.62262%, 4.728699%, 23.442078%)" offset="0.28125"/><stop stop-opacity="1" stop-color="rgb(11.932373%, 4.881287%, 23.535156%)" offset="0.289063"/><stop stop-opacity="1" stop-color="rgb(12.243652%, 5.032349%, 23.628235%)" offset="0.296875"/><stop stop-opacity="1" stop-color="rgb(12.553406%, 5.184937%, 23.721313%)" offset="0.304688"/><stop stop-opacity="1" stop-color="rgb(12.864685%, 5.335999%, 23.814392%)" offset="0.3125"/><stop stop-opacity="1" stop-color="rgb(13.174438%, 5.488586%, 23.907471%)" offset="0.320313"/><stop stop-opacity="1" stop-color="rgb(13.485718%, 5.639648%, 24.000549%)" offset="0.328125"/><stop stop-opacity="1" stop-color="rgb(13.795471%, 5.792236%, 24.093628%)" offset="0.335938"/><stop stop-opacity="1" stop-color="rgb(14.10675%, 5.943298%, 24.186707%)" offset="0.34375"/><stop stop-opacity="1" stop-color="rgb(14.416504%, 6.095886%, 24.279785%)" offset="0.351563"/><stop stop-opacity="1" stop-color="rgb(14.727783%, 6.246948%, 24.372864%)" offset="0.359375"/><stop stop-opacity="1" stop-color="rgb(15.037537%, 6.399536%, 24.465942%)" offset="0.367188"/><stop stop-opacity="1" stop-color="rgb(15.348816%, 6.550598%, 24.559021%)" offset="0.375"/><stop stop-opacity="1" stop-color="rgb(15.658569%, 6.703186%, 24.6521%)" offset="0.382813"/><stop stop-opacity="1" stop-color="rgb(15.969849%, 6.854248%, 24.745178%)" offset="0.390625"/><stop stop-opacity="1" stop-color="rgb(16.279602%, 7.006836%, 24.839783%)" offset="0.398438"/><stop stop-opacity="1" stop-color="rgb(16.590881%, 7.159424%, 24.932861%)" offset="0.40625"/><stop stop-opacity="1" stop-color="rgb(16.900635%, 7.310486%, 25.02594%)" offset="0.414063"/><stop stop-opacity="1" stop-color="rgb(17.211914%, 7.463074%, 25.119019%)" offset="0.421875"/><stop stop-opacity="1" stop-color="rgb(17.521667%, 7.614136%, 25.212097%)" offset="0.429688"/><stop stop-opacity="1" stop-color="rgb(17.832947%, 7.766724%, 25.305176%)" offset="0.4375"/><stop stop-opacity="1" stop-color="rgb(18.1427%, 7.917786%, 25.398254%)" offset="0.445313"/><stop stop-opacity="1" stop-color="rgb(18.453979%, 8.070374%, 25.491333%)" offset="0.453125"/><stop stop-opacity="1" stop-color="rgb(18.763733%, 8.221436%, 25.584412%)" offset="0.460938"/><stop stop-opacity="1" stop-color="rgb(19.075012%, 8.374023%, 25.67749%)" offset="0.46875"/><stop stop-opacity="1" stop-color="rgb(19.384766%, 8.525085%, 25.770569%)" offset="0.476563"/><stop stop-opacity="1" stop-color="rgb(19.696045%, 8.677673%, 25.863647%)" offset="0.484375"/><stop stop-opacity="1" stop-color="rgb(20.005798%, 8.828735%, 25.956726%)" offset="0.492188"/><stop stop-opacity="1" stop-color="rgb(20.317078%, 8.981323%, 26.049805%)" offset="0.494581"/><stop stop-opacity="1" stop-color="rgb(20.472717%, 9.057617%, 26.097107%)" offset="0.5"/><stop stop-opacity="1" stop-color="rgb(20.626831%, 9.132385%, 26.142883%)" offset="0.505419"/><stop stop-opacity="1" stop-color="rgb(20.782471%, 9.208679%, 26.190186%)" offset="0.507812"/><stop stop-opacity="1" stop-color="rgb(20.93811%, 9.284973%, 26.235962%)" offset="0.515625"/><stop stop-opacity="1" stop-color="rgb(21.247864%, 9.436035%, 26.330566%)" offset="0.523438"/><stop stop-opacity="1" stop-color="rgb(21.559143%, 9.588623%, 26.423645%)" offset="0.53125"/><stop stop-opacity="1" stop-color="rgb(21.868896%, 9.739685%, 26.516724%)" offset="0.539063"/><stop stop-opacity="1" stop-color="rgb(22.180176%, 9.892273%, 26.609802%)" offset="0.546875"/><stop stop-opacity="1" stop-color="rgb(22.489929%, 10.044861%, 26.702881%)" offset="0.554688"/><stop stop-opacity="1" stop-color="rgb(22.801208%, 10.195923%, 26.795959%)" offset="0.5625"/><stop stop-opacity="1" stop-color="rgb(23.110962%, 10.348511%, 26.889038%)" offset="0.570312"/><stop stop-opacity="1" stop-color="rgb(23.422241%, 10.499573%, 26.982117%)" offset="0.578125"/><stop stop-opacity="1" stop-color="rgb(23.731995%, 10.652161%, 27.075195%)" offset="0.585938"/><stop stop-opacity="1" stop-color="rgb(24.043274%, 10.803223%, 27.168274%)" offset="0.59375"/><stop stop-opacity="1" stop-color="rgb(24.353027%, 10.955811%, 27.261353%)" offset="0.601562"/><stop stop-opacity="1" stop-color="rgb(24.662781%, 11.106873%, 27.354431%)" offset="0.609375"/><stop stop-opacity="1" stop-color="rgb(24.97406%, 11.25946%, 27.44751%)" offset="0.617188"/><stop stop-opacity="1" stop-color="rgb(25.283813%, 11.410522%, 27.540588%)" offset="0.625"/><stop stop-opacity="1" stop-color="rgb(25.595093%, 11.56311%, 27.633667%)" offset="0.632812"/><stop stop-opacity="1" stop-color="rgb(25.904846%, 11.714172%, 27.726746%)" offset="0.640625"/><stop stop-opacity="1" stop-color="rgb(26.216125%, 11.86676%, 27.82135%)" offset="0.648438"/><stop stop-opacity="1" stop-color="rgb(26.525879%, 12.017822%, 27.914429%)" offset="0.65625"/><stop stop-opacity="1" stop-color="rgb(26.837158%, 12.17041%, 28.007507%)" offset="0.664062"/><stop stop-opacity="1" stop-color="rgb(27.146912%, 12.321472%, 28.100586%)" offset="0.671875"/><stop stop-opacity="1" stop-color="rgb(27.458191%, 12.47406%, 28.193665%)" offset="0.679688"/><stop stop-opacity="1" stop-color="rgb(27.767944%, 12.625122%, 28.286743%)" offset="0.6875"/><stop stop-opacity="1" stop-color="rgb(28.079224%, 12.77771%, 28.379822%)" offset="0.695313"/><stop stop-opacity="1" stop-color="rgb(28.388977%, 12.928772%, 28.4729%)" offset="0.703125"/><stop stop-opacity="1" stop-color="rgb(28.700256%, 13.08136%, 28.565979%)" offset="0.710938"/><stop stop-opacity="1" stop-color="rgb(29.01001%, 13.233948%, 28.659058%)" offset="0.71875"/><stop stop-opacity="1" stop-color="rgb(29.321289%, 13.38501%, 28.752136%)" offset="0.726562"/><stop stop-opacity="1" stop-color="rgb(29.631042%, 13.537598%, 28.845215%)" offset="0.734375"/><stop stop-opacity="1" stop-color="rgb(29.942322%, 13.68866%, 28.938293%)" offset="0.742188"/><stop stop-opacity="1" stop-color="rgb(30.252075%, 13.841248%, 29.031372%)" offset="0.75"/><stop stop-opacity="1" stop-color="rgb(30.563354%, 13.99231%, 29.124451%)" offset="0.757813"/><stop stop-opacity="1" stop-color="rgb(30.873108%, 14.144897%, 29.219055%)" offset="0.765625"/><stop stop-opacity="1" stop-color="rgb(31.184387%, 14.295959%, 29.312134%)" offset="0.773438"/><stop stop-opacity="1" stop-color="rgb(31.494141%, 14.448547%, 29.405212%)" offset="0.78125"/><stop stop-opacity="1" stop-color="rgb(31.80542%, 14.599609%, 29.498291%)" offset="0.789062"/><stop stop-opacity="1" stop-color="rgb(32.115173%, 14.752197%, 29.59137%)" offset="0.796875"/><stop stop-opacity="1" stop-color="rgb(32.426453%, 14.903259%, 29.684448%)" offset="0.804688"/><stop stop-opacity="1" stop-color="rgb(32.736206%, 15.055847%, 29.777527%)" offset="0.8125"/><stop stop-opacity="1" stop-color="rgb(33.047485%, 15.206909%, 29.870605%)" offset="0.820313"/><stop stop-opacity="1" stop-color="rgb(33.357239%, 15.359497%, 29.963684%)" offset="0.828125"/><stop stop-opacity="1" stop-color="rgb(33.668518%, 15.510559%, 30.056763%)" offset="0.835938"/><stop stop-opacity="1" stop-color="rgb(33.978271%, 15.663147%, 30.149841%)" offset="0.84375"/><stop stop-opacity="1" stop-color="rgb(34.289551%, 15.814209%, 30.24292%)" offset="0.851562"/><stop stop-opacity="1" stop-color="rgb(34.599304%, 15.966797%, 30.335999%)" offset="0.859375"/><stop stop-opacity="1" stop-color="rgb(34.910583%, 16.117859%, 30.429077%)" offset="0.867188"/><stop stop-opacity="1" stop-color="rgb(35.220337%, 16.270447%, 30.522156%)" offset="0.875"/><stop stop-opacity="1" stop-color="rgb(35.531616%, 16.423035%, 30.615234%)" offset="0.882813"/><stop stop-opacity="1" stop-color="rgb(35.84137%, 16.574097%, 30.709839%)" offset="0.890625"/><stop stop-opacity="1" stop-color="rgb(36.152649%, 16.726685%, 30.802917%)" offset="0.898438"/><stop stop-opacity="1" stop-color="rgb(36.462402%, 16.877747%, 30.895996%)" offset="0.90625"/><stop stop-opacity="1" stop-color="rgb(36.773682%, 17.030334%, 30.989075%)" offset="0.914062"/><stop stop-opacity="1" stop-color="rgb(37.083435%, 17.181396%, 31.082153%)" offset="0.921875"/><stop stop-opacity="1" stop-color="rgb(37.393188%, 17.333984%, 31.175232%)" offset="0.929688"/><stop stop-opacity="1" stop-color="rgb(37.704468%, 17.485046%, 31.268311%)" offset="0.9375"/><stop stop-opacity="1" stop-color="rgb(37.948608%, 17.605591%, 31.341553%)" offset="1"/></linearGradient></defs><g clip-path="url(#98069025c3)"><path fill="url(#ff72ec834f)" d="M 0 0 L 0 299.992188 L 299.164062 299.992188 L 299.164062 0 Z M 0 0 " fill-rule="nonzero"/></g><path fill="#ffffff" d="M 151.605469 128.902344 C 159.257812 128.902344 165.058594 127.269531 169.011719 123.917969 C 172.964844 120.570312 174.9375 115.695312 174.9375 109.214844 C 174.9375 102.816406 172.964844 97.957031 169.011719 94.632812 C 165.03125 91.226562 159.257812 89.523438 151.605469 89.523438 L 124.738281 89.523438 L 124.738281 128.90625 L 151.605469 128.90625 M 153.242188 210.285156 C 162.996094 210.285156 170.3125 208.25 175.1875 204.179688 C 180.152344 200.109375 182.632812 193.960938 182.632812 185.734375 C 182.632812 177.671875 180.191406 171.652344 175.316406 167.664062 C 170.4375 163.59375 163.082031 161.558594 153.246094 161.558594 L 124.738281 161.558594 L 124.738281 210.289062 L 153.246094 210.289062 M 198.398438 143.367188 C 208.824219 146.359375 216.898438 151.882812 222.613281 159.941406 C 228.332031 167.996094 231.191406 177.886719 231.191406 189.601562 C 231.191406 207.546875 225.054688 220.925781 212.777344 229.730469 C 200.503906 238.539062 181.839844 242.941406 156.78125 242.941406 L 76.1875 242.941406 L 76.1875 56.921875 L 149.089844 56.921875 C 175.238281 56.921875 194.15625 60.824219 205.84375 68.636719 C 217.617188 76.445312 223.5 88.949219 223.5 106.148438 C 223.5 115.203125 221.359375 122.929688 217.070312 129.328125 C 212.78125 135.640625 206.539062 140.308594 198.402344 143.410156 " fill-opacity="1" fill-rule="nonzero"/></svg>