<svg xmlns="http://www.w3.org/2000/svg" xmlns:xlink="http://www.w3.org/1999/xlink" width="400" zoomAndPan="magnify" viewBox="0 0 300 299.999988" height="400" preserveAspectRatio="xMidYMid meet" version="1.0"><defs><clipPath id="33291a3c76"><path d="M 42.273438 81 L 155 81 L 155 242 L 42.273438 242 Z M 42.273438 81 " clip-rule="nonzero"/></clipPath><clipPath id="3e76d0d268"><path d="M 42.273438 64 L 257.523438 64 L 257.523438 300 L 42.273438 300 Z M 42.273438 64 " clip-rule="nonzero"/></clipPath><clipPath id="3b84e15284"><path d="M 42.273438 1 L 127 1 L 127 242 L 42.273438 242 Z M 42.273438 1 " clip-rule="nonzero"/></clipPath></defs><path fill="#ffa000" d="M 184.058594 109.546875 L 154.246094 137.3125 L 126.582031 81.457031 L 140.898438 49.332031 C 144.621094 42.8125 150.429688 42.886719 154.058594 49.332031 Z M 184.058594 109.546875 " fill-opacity="1" fill-rule="nonzero"/><g clip-path="url(#33291a3c76)"><path fill="#f57f17" d="M 126.582031 81.457031 L 154.246094 137.3125 L 42.824219 241.054688 Z M 126.582031 81.457031 " fill-opacity="1" fill-rule="nonzero"/></g><g clip-path="url(#3e76d0d268)"><path fill="#ffca28" d="M 216.664062 67.109375 C 221.988281 61.984375 227.5 63.734375 228.90625 70.992188 L 257.910156 239.675781 L 161.773438 297.4375 C 158.425781 299.300781 149.488281 300.101562 149.488281 300.101562 C 149.488281 300.101562 141.351562 299.132812 138.253906 297.308594 L 42.824219 241.054688 Z M 216.664062 67.109375 " fill-opacity="1" fill-rule="nonzero"/></g><g clip-path="url(#3b84e15284)"><path fill="#ffa000" d="M 126.582031 81.457031 L 42.835938 241.054688 L 80.132812 7.808594 C 81.511719 0.539062 85.644531 -0.160156 89.328125 6.25 Z M 126.582031 81.457031 " fill-opacity="1" fill-rule="nonzero"/></g></svg>