<svg xmlns="http://www.w3.org/2000/svg" xmlns:xlink="http://www.w3.org/1999/xlink" width="400" zoomAndPan="magnify" viewBox="0 0 300 299.999988" height="400" preserveAspectRatio="xMidYMid meet" version="1.0"><defs><clipPath id="22d2ee991b"><path d="M 18.546875 0 L 281.796875 0 L 281.796875 300 L 18.546875 300 Z M 18.546875 0 " clip-rule="nonzero"/></clipPath></defs><g clip-path="url(#22d2ee991b)"><path fill="#e44d26" d="M 42.441406 269.347656 L 18.472656 0.847656 L 281.871094 0.847656 L 257.878906 269.3125 L 150.003906 299.164062 Z M 42.441406 269.347656 " fill-opacity="1" fill-rule="nonzero"/></g><path fill="#f16529" d="M 237.332031 252.214844 L 257.839844 22.800781 L 150.171875 22.800781 L 150.171875 276.351562 Z M 237.332031 252.214844 " fill-opacity="1" fill-rule="nonzero"/><path fill="#ebebeb" d="M 150.058594 55.730469 L 67.480469 55.730469 L 76.375 155.3125 L 150.171875 155.3125 L 150.171875 122.386719 L 106.539062 122.386719 L 103.523438 88.667969 L 150.171875 88.667969 L 150.171875 55.730469 Z M 150.171875 207.800781 L 150.03125 207.835938 L 113.304688 197.9375 L 110.972656 171.675781 L 77.851562 171.675781 L 82.472656 223.378906 L 150.019531 242.023438 L 150.171875 241.976562 Z M 150.171875 207.800781 " fill-opacity="1" fill-rule="nonzero"/><path fill="#ffffff" d="M 150.058594 155.3125 L 190.667969 155.3125 L 186.933594 198.011719 L 150.152344 207.921875 L 150.152344 242.183594 L 217.757812 223.472656 L 226.8125 122.367188 L 150.171875 122.367188 Z M 231.871094 64.566406 L 232.65625 55.730469 L 150.039062 55.730469 L 150.039062 88.65625 L 229.6875 88.65625 L 230.339844 81.253906 Z M 231.871094 64.566406 " fill-opacity="1" fill-rule="nonzero"/></svg>