<svg xmlns="http://www.w3.org/2000/svg" xmlns:xlink="http://www.w3.org/1999/xlink" width="400" zoomAndPan="magnify" viewBox="0 0 300 299.999988" height="400" preserveAspectRatio="xMidYMid meet" version="1.0"><path fill="#4e7896" d="M 112.046875 229.785156 C 112.046875 229.785156 100.632812 236.730469 119.984375 238.71875 C 143.28125 241.691406 155.6875 241.199219 181.472656 236.238281 C 186.667969 239.421875 192.121094 242.070312 197.835938 244.179688 C 139.828125 268.996094 66.410156 242.695312 112.039062 229.785156 Z M 104.625 197.527344 C 104.625 197.527344 92.222656 206.953125 111.566406 208.949219 C 136.855469 211.429688 156.691406 211.921875 190.921875 204.984375 C 194.296875 208.410156 198.261719 210.890625 202.820312 212.425781 C 132.894531 233.265625 54.542969 214.410156 104.625 197.535156 Z M 241.496094 254.089844 C 241.496094 254.089844 249.921875 261.039062 232.074219 266.5 C 198.847656 276.4375 92.722656 279.410156 62.96875 266.5 C 52.554688 262.039062 72.390625 255.585938 78.746094 254.589844 C 85.199219 253.105469 88.679688 253.105469 88.679688 253.105469 C 77.261719 245.164062 12.804688 269.480469 55.953125 276.417969 C 174.476562 295.773438 272.171875 267.984375 241.421875 254.089844 Z M 117.414062 163.773438 C 117.414062 163.773438 63.359375 176.683594 98.070312 181.140625 C 112.949219 183.128906 142.203125 182.628906 169.480469 180.648438 C 191.792969 178.664062 214.125 174.707031 214.125 174.707031 C 214.125 174.707031 206.1875 178.179688 200.730469 181.652344 C 145.691406 196.050781 40.054688 189.59375 70.308594 174.707031 C 96.09375 162.296875 117.421875 163.792969 117.421875 163.792969 Z M 214.125 217.867188 C 269.664062 189.074219 243.878906 161.304688 226.023438 164.769531 C 221.566406 165.761719 219.574219 166.753906 219.574219 166.753906 C 219.574219 166.753906 221.058594 163.785156 224.527344 162.789062 C 259.742188 150.378906 287.511719 200.007812 213.113281 219.351562 C 213.113281 219.351562 213.605469 218.859375 214.105469 217.867188 Z M 122.890625 296.277344 C 176.441406 299.75 258.277344 294.289062 260.253906 268.96875 C 260.253906 268.96875 256.289062 278.90625 216.121094 286.335938 C 170.492188 294.769531 113.960938 293.769531 80.734375 288.324219 C 80.734375 288.324219 87.675781 294.269531 122.890625 296.265625 Z M 122.890625 296.277344 " fill-opacity="1" fill-rule="nonzero"/><path fill="#f58219" d="M 180.488281 0.0078125 C 180.488281 0.0078125 211.238281 31.273438 151.234375 78.417969 C 103.128906 116.628906 140.328125 138.464844 151.234375 163.28125 C 122.964844 137.972656 102.636719 115.632812 116.523438 94.800781 C 136.847656 64.023438 192.890625 49.226562 180.488281 0.0078125 Z M 164.710938 142.441406 C 179.097656 158.8125 160.746094 173.703125 160.746094 173.703125 C 160.746094 173.703125 197.445312 154.847656 180.582031 131.515625 C 165.210938 109.1875 153.292969 98.265625 217.773438 61.050781 C 217.773438 61.050781 116.113281 86.359375 164.710938 142.441406 Z M 164.710938 142.441406 " fill-opacity="1" fill-rule="nonzero"/></svg>