<svg xmlns="http://www.w3.org/2000/svg" xmlns:xlink="http://www.w3.org/1999/xlink" width="400" zoomAndPan="magnify" viewBox="0 0 300 299.999988" height="400" preserveAspectRatio="xMidYMid meet" version="1.0"><path fill="#1266a9" d="M 24.464844 193.242188 C 24.742188 193.878906 25.0625 194.464844 25.402344 195.046875 C 25.5625 195.390625 25.78125 195.742188 25.976562 196.0625 C 26.292969 196.695312 26.632812 197.304688 26.964844 197.914062 L 28.878906 201.132812 C 29.230469 201.730469 29.574219 202.316406 29.976562 202.902344 C 30.644531 204.046875 31.4375 205.171875 32.132812 206.316406 C 32.453125 206.792969 32.742188 207.269531 33.097656 207.742188 C 34.4375 209.828125 35.660156 211.5625 36.964844 213.242188 C 37.890625 214.5 38.816406 215.730469 39.816406 216.964844 C 40.144531 217.425781 40.511719 217.890625 40.855469 218.355469 L 43.546875 221.621094 C 43.878906 222 44.207031 222.4375 44.5625 222.828125 C 45.757812 224.269531 47.023438 225.660156 48.292969 227.074219 C 48.292969 227.097656 48.328125 227.121094 48.355469 227.160156 C 49.925781 229.132812 51.621094 230.890625 53.476562 232.453125 L 53.523438 232.5 C 54.5 233.5 55.476562 234.488281 56.511719 235.464844 L 57.742188 236.644531 C 59.097656 237.914062 60.453125 239.171875 61.878906 240.390625 C 61.902344 240.390625 61.914062 240.414062 61.9375 240.425781 L 62.632812 241.035156 C 63.878906 242.121094 65.132812 243.195312 66.414062 244.195312 L 67.9375 245.476562 C 68.976562 246.304688 70.046875 247.085938 71.109375 247.902344 L 72.769531 249.171875 C 73.902344 250.023438 75.109375 250.855469 76.269531 251.683594 C 76.695312 251.988281 77.121094 252.292969 77.5625 252.574219 L 77.914062 252.855469 L 81.339844 255.097656 L 82.804688 256.074219 C 84.597656 257.21875 86.378906 258.292969 88.160156 259.367188 C 88.671875 259.621094 89.183594 259.902344 89.660156 260.195312 C 90.976562 260.953125 92.339844 261.71875 93.671875 262.414062 C 94.402344 262.828125 95.160156 263.183594 95.914062 263.5625 C 96.828125 264.074219 97.78125 264.574219 98.757812 265.085938 C 99.023438 265.171875 99.242188 265.257812 99.464844 265.378906 L 99.511719 265.328125 C 99.914062 265.511719 100.292969 265.707031 100.683594 265.902344 C 102.144531 266.632812 103.671875 267.328125 105.257812 268.011719 C 105.546875 268.132812 105.867188 268.257812 106.183594 268.425781 C 107.9375 269.195312 109.695312 269.925781 111.511719 270.632812 C 111.925781 270.757812 112.367188 270.964844 112.792969 271.121094 C 114.4375 271.742188 116.132812 272.378906 117.816406 272.976562 L 118.425781 273.195312 C 120.292969 273.828125 122.132812 274.4375 124.035156 275.011719 C 124.476562 275.132812 124.925781 275.292969 125.390625 275.414062 C 127.328125 276 129.207031 276.695312 131.171875 277.0625 C 256.453125 299.78125 292.855469 202.109375 292.855469 202.109375 C 262.269531 241.742188 207.988281 252.195312 156.585938 240.5625 C 154.683594 240.121094 152.78125 239.511719 150.855469 238.953125 C 147.367188 237.9375 145.046875 237.207031 142.769531 236.402344 L 143.925781 236.757812 L 143.171875 236.464844 C 141.511719 235.902344 139.914062 235.28125 138.292969 234.660156 C 137.988281 234.523438 137.535156 234.355469 137.085938 234.195312 L 136.953125 234.160156 C 135.160156 233.4375 133.414062 232.707031 131.683594 231.9375 C 131.304688 231.816406 130.988281 231.644531 130.609375 231.5 C 127.414062 230.085938 125.964844 229.402344 124.511719 228.695312 L 126.195312 229.4375 C 125.742188 229.242188 125.339844 229.035156 124.902344 228.804688 C 123.757812 228.269531 122.609375 227.660156 121.488281 227.085938 C 120.4375 226.585938 119.695312 226.195312 118.964844 225.792969 L 119.207031 225.914062 C 117.828125 225.183594 116.453125 224.390625 115.0625 223.644531 C 114.644531 223.355469 114.171875 223.109375 113.695312 222.839844 C 111.0625 221.304688 109.316406 220.21875 107.574219 219.109375 L 108.339844 219.574219 C 107.757812 219.207031 107.28125 218.890625 106.828125 218.5625 L 106.902344 218.609375 C 105.402344 217.683594 104.207031 216.890625 103.046875 216.074219 C 102.632812 215.804688 102.257812 215.511719 101.828125 215.21875 C 100.269531 214.144531 99.097656 213.304688 97.953125 212.4375 L 98.242188 212.644531 C 97.730469 212.230469 97.183594 211.839844 96.632812 211.4375 C 95.5625 210.597656 94.476562 209.792969 93.402344 208.914062 L 91.964844 207.769531 C 90.414062 206.523438 89.121094 205.4375 87.855469 204.328125 C 87.730469 204.207031 87.597656 204.097656 87.453125 204 L 87.4375 203.988281 L 83.207031 200.144531 L 81.988281 199 C 80.988281 197.988281 79.964844 197.023438 78.9375 196.023438 L 77.757812 194.804688 C 76.488281 193.546875 75.269531 192.28125 74.0625 190.964844 L 73.988281 190.878906 L 73.78125 190.707031 C 72.488281 189.292969 71.230469 187.867188 69.964844 186.402344 C 69.632812 186.023438 69.328125 185.621094 68.988281 185.21875 L 66.21875 181.867188 C 65.257812 180.671875 63.902344 178.902344 62.5625 177.097656 L 62.074219 176.414062 C 33.5625 137.683594 23.242188 84.230469 46.0625 40.378906 L 25.914062 65.855469 C 0 102.914062 3.207031 151.109375 23.023438 190.464844 C 23.476562 191.425781 23.976562 192.328125 24.464844 193.242188 Z M 24.464844 193.242188 " fill-opacity="1" fill-rule="nonzero"/><path fill="#000000" d="M 111.742188 139.855469 C 111.695312 139.792969 111.660156 139.71875 111.609375 139.660156 C 111.574219 139.609375 111.535156 139.5625 111.5 139.511719 Z M 111.742188 139.855469 " fill-opacity="1" fill-rule="nonzero"/><path fill="#1266a9" d="M 125.378906 155.855469 L 126.476562 156.953125 C 127.867188 158.292969 129.292969 159.597656 130.742188 160.902344 L 130.925781 161.0625 C 132.390625 162.355469 134.035156 163.707031 135.730469 165.023438 L 135.988281 165.21875 C 136.402344 165.5 136.757812 165.828125 137.160156 166.109375 C 138.867188 167.425781 140.585938 168.683594 142.378906 169.9375 L 142.5625 170.046875 C 143.316406 170.597656 144.121094 171.097656 144.976562 171.632812 C 145.316406 171.855469 145.707031 172.144531 146.074219 172.367188 C 147.367188 173.195312 148.632812 173.964844 149.9375 174.757812 C 150.144531 174.839844 150.328125 174.953125 150.523438 175.035156 C 151.621094 175.707031 152.816406 176.355469 153.964844 176.9375 C 154.367188 177.183594 154.757812 177.367188 155.171875 177.597656 C 155.988281 178 156.792969 178.425781 157.574219 178.839844 L 157.964844 179.011719 C 159.609375 179.816406 161.292969 180.574219 162.9375 181.316406 C 163.355469 181.476562 163.707031 181.609375 164.0625 181.78125 C 165.414062 182.367188 166.792969 182.925781 168.144531 183.4375 C 168.757812 183.644531 169.328125 183.890625 169.902344 184.074219 C 171.144531 184.535156 172.453125 184.964844 173.683594 185.390625 L 175.390625 185.9375 C 177.171875 186.488281 178.976562 187.207031 180.867188 187.5 C 277.609375 203.425781 300 129.316406 300 129.316406 C 279.839844 158.183594 240.828125 171.9375 199.257812 161.195312 C 196.730469 160.546875 194.902344 160.011719 193.085938 159.425781 L 193.78125 159.621094 C 193.195312 159.464844 192.683594 159.28125 192.121094 159.109375 C 190.855469 158.671875 189.546875 158.242188 188.316406 157.792969 L 186.5625 157.132812 C 185.195312 156.585938 183.804688 156.074219 182.476562 155.488281 C 182.0625 155.304688 181.683594 155.183594 181.367188 155 C 179.660156 154.230469 177.9375 153.476562 176.269531 152.671875 L 173.757812 151.367188 L 172.304688 150.632812 C 171.183594 150.046875 170.144531 149.4375 169.074219 148.816406 C 168.769531 148.671875 168.523438 148.535156 168.28125 148.378906 L 168.316406 148.390625 C 167.023438 147.585938 165.683594 146.804688 164.4375 145.988281 C 164.023438 145.757812 163.644531 145.476562 163.257812 145.230469 L 160.71875 143.585938 C 158.964844 142.367188 157.242188 141.0625 155.5 139.792969 C 155.109375 139.4375 154.730469 139.144531 154.355469 138.828125 C 136.074219 124.523438 121.660156 104.976562 114.816406 82.839844 C 107.609375 59.828125 109.195312 34.023438 121.644531 13.085938 L 106.339844 34.644531 C 87.546875 61.488281 88.609375 97.367188 103.242188 125.757812 C 105.914062 131 108.621094 135.425781 111.609375 139.644531 C 114.390625 143.621094 117.464844 148.28125 121.171875 151.476562 C 122.488281 152.976562 123.902344 154.402344 125.378906 155.855469 Z M 125.378906 155.855469 " fill-opacity="1" fill-rule="nonzero"/><path fill="#000000" d="M 37.023438 213.316406 L 36.976562 213.242188 L 36.890625 213.132812 Z M 37.023438 213.316406 " fill-opacity="1" fill-rule="nonzero"/><path fill="#000000" d="M 87.730469 204.242188 L 87.855469 204.328125 L 87.878906 204.367188 Z M 87.730469 204.242188 " fill-opacity="1" fill-rule="nonzero"/><path fill="#1266a9" d="M 173.976562 11.304688 C 162.890625 27.488281 161.828125 47.585938 169.464844 65.425781 C 177.574219 84.378906 194.144531 99.257812 213.464844 106.304688 C 214.257812 106.609375 215.023438 106.867188 215.839844 107.160156 L 216.914062 107.488281 C 218.035156 107.839844 219.171875 108.257812 220.328125 108.511719 C 273.757812 118.769531 288.21875 81.21875 292.109375 75.695312 C 279.390625 93.867188 258.0625 98.230469 231.890625 91.902344 C 229.328125 91.269531 227.21875 90.597656 225.183594 89.828125 L 225.585938 89.964844 C 222.5 88.878906 220.011719 87.839844 217.585938 86.671875 L 218.046875 86.878906 C 213.046875 84.4375 208.757812 81.804688 204.769531 78.78125 C 181.378906 61.097656 166.914062 27.425781 182.183594 0 Z M 173.976562 11.304688 " fill-opacity="1" fill-rule="nonzero"/><path fill="#1266a9" d="M 24.464844 193.242188 C 24.742188 193.878906 25.0625 194.464844 25.402344 195.046875 C 25.5625 195.390625 25.78125 195.742188 25.976562 196.0625 C 26.292969 196.695312 26.632812 197.304688 26.964844 197.914062 L 28.878906 201.132812 C 29.230469 201.730469 29.574219 202.316406 29.976562 202.902344 C 30.644531 204.046875 31.4375 205.171875 32.132812 206.316406 C 32.453125 206.792969 32.742188 207.269531 33.097656 207.742188 C 34.4375 209.828125 35.660156 211.5625 36.964844 213.242188 C 37.890625 214.5 38.816406 215.730469 39.816406 216.964844 C 40.144531 217.425781 40.511719 217.890625 40.855469 218.355469 L 43.546875 221.621094 C 43.878906 222 44.207031 222.4375 44.5625 222.828125 C 45.757812 224.269531 47.023438 225.660156 48.292969 227.074219 C 48.292969 227.097656 48.328125 227.121094 48.355469 227.160156 C 49.925781 229.132812 51.621094 230.890625 53.476562 232.453125 L 53.523438 232.5 C 54.5 233.5 55.476562 234.488281 56.511719 235.464844 L 57.742188 236.644531 C 59.097656 237.914062 60.453125 239.171875 61.878906 240.390625 C 61.902344 240.390625 61.914062 240.414062 61.9375 240.425781 L 62.632812 241.035156 C 63.878906 242.121094 65.132812 243.195312 66.414062 244.195312 L 67.9375 245.476562 C 68.976562 246.304688 70.046875 247.085938 71.109375 247.902344 L 72.769531 249.171875 C 73.902344 250.023438 75.109375 250.855469 76.269531 251.683594 C 76.695312 251.988281 77.121094 252.292969 77.5625 252.574219 L 77.914062 252.855469 L 81.339844 255.097656 L 82.804688 256.074219 C 84.597656 257.21875 86.378906 258.292969 88.160156 259.367188 C 88.671875 259.621094 89.183594 259.902344 89.660156 260.195312 C 90.976562 260.953125 92.339844 261.71875 93.671875 262.414062 C 94.402344 262.828125 95.160156 263.183594 95.914062 263.5625 C 96.828125 264.074219 97.78125 264.574219 98.757812 265.085938 C 99.023438 265.171875 99.242188 265.257812 99.464844 265.378906 L 99.511719 265.328125 C 99.914062 265.511719 100.292969 265.707031 100.683594 265.902344 C 102.144531 266.632812 103.671875 267.328125 105.257812 268.011719 C 105.546875 268.132812 105.867188 268.257812 106.183594 268.425781 C 107.9375 269.195312 109.695312 269.925781 111.511719 270.632812 C 111.925781 270.757812 112.367188 270.964844 112.792969 271.121094 C 114.4375 271.742188 116.132812 272.378906 117.816406 272.976562 L 118.425781 273.195312 C 120.292969 273.828125 122.132812 274.4375 124.035156 275.011719 C 124.476562 275.132812 124.925781 275.292969 125.390625 275.414062 C 127.328125 276 129.207031 276.695312 131.171875 277.0625 C 256.453125 299.78125 292.855469 202.109375 292.855469 202.109375 C 262.269531 241.742188 207.988281 252.195312 156.585938 240.5625 C 154.683594 240.121094 152.78125 239.511719 150.855469 238.953125 C 147.367188 237.9375 145.046875 237.207031 142.769531 236.402344 L 143.925781 236.757812 L 143.171875 236.464844 C 141.511719 235.902344 139.914062 235.28125 138.292969 234.660156 C 137.988281 234.523438 137.535156 234.355469 137.085938 234.195312 L 136.953125 234.160156 C 135.160156 233.4375 133.414062 232.707031 131.683594 231.9375 C 131.304688 231.816406 130.988281 231.644531 130.609375 231.5 C 127.414062 230.085938 125.964844 229.402344 124.511719 228.695312 L 126.195312 229.4375 C 125.742188 229.242188 125.339844 229.035156 124.902344 228.804688 C 123.757812 228.269531 122.609375 227.660156 121.488281 227.085938 C 120.4375 226.585938 119.695312 226.195312 118.964844 225.792969 L 119.207031 225.914062 C 117.828125 225.183594 116.453125 224.390625 115.0625 223.644531 C 114.644531 223.355469 114.171875 223.109375 113.695312 222.839844 C 111.0625 221.304688 109.316406 220.21875 107.574219 219.109375 L 108.339844 219.574219 C 107.757812 219.207031 107.28125 218.890625 106.828125 218.5625 L 106.902344 218.609375 C 105.402344 217.683594 104.207031 216.890625 103.046875 216.074219 C 102.632812 215.804688 102.257812 215.511719 101.828125 215.21875 C 100.269531 214.144531 99.097656 213.304688 97.953125 212.4375 L 98.242188 212.644531 C 97.730469 212.230469 97.183594 211.839844 96.632812 211.4375 C 95.5625 210.597656 94.476562 209.792969 93.402344 208.914062 L 91.964844 207.769531 C 90.414062 206.523438 89.121094 205.4375 87.855469 204.328125 C 87.730469 204.207031 87.597656 204.097656 87.453125 204 L 87.4375 203.988281 L 83.207031 200.144531 L 81.988281 199 C 80.988281 197.988281 79.964844 197.023438 78.9375 196.023438 L 77.757812 194.804688 C 76.488281 193.546875 75.269531 192.28125 74.0625 190.964844 L 73.988281 190.878906 L 73.78125 190.707031 C 72.488281 189.292969 71.230469 187.867188 69.964844 186.402344 C 69.632812 186.023438 69.328125 185.621094 68.988281 185.21875 L 66.21875 181.867188 C 65.257812 180.671875 63.902344 178.902344 62.5625 177.097656 L 62.074219 176.414062 C 33.5625 137.683594 23.242188 84.230469 46.0625 40.378906 L 25.914062 65.855469 C 0 102.914062 3.207031 151.109375 23.023438 190.464844 C 23.476562 191.425781 23.976562 192.328125 24.464844 193.242188 Z M 24.464844 193.242188 " fill-opacity="1" fill-rule="nonzero"/><path fill="#000000" d="M 111.742188 139.855469 C 111.695312 139.792969 111.660156 139.71875 111.609375 139.660156 C 111.574219 139.609375 111.535156 139.5625 111.5 139.511719 Z M 111.742188 139.855469 " fill-opacity="1" fill-rule="nonzero"/><path fill="#1266a9" d="M 125.378906 155.855469 L 126.476562 156.953125 C 127.867188 158.292969 129.292969 159.597656 130.742188 160.902344 L 130.925781 161.0625 C 132.390625 162.355469 134.035156 163.707031 135.730469 165.023438 L 135.988281 165.21875 C 136.402344 165.5 136.757812 165.828125 137.160156 166.109375 C 138.867188 167.425781 140.585938 168.683594 142.378906 169.9375 L 142.5625 170.046875 C 143.316406 170.597656 144.121094 171.097656 144.976562 171.632812 C 145.316406 171.855469 145.707031 172.144531 146.074219 172.367188 C 147.367188 173.195312 148.632812 173.964844 149.9375 174.757812 C 150.144531 174.839844 150.328125 174.953125 150.523438 175.035156 C 151.621094 175.707031 152.816406 176.355469 153.964844 176.9375 C 154.367188 177.183594 154.757812 177.367188 155.171875 177.597656 C 155.988281 178 156.792969 178.425781 157.574219 178.839844 L 157.964844 179.011719 C 159.609375 179.816406 161.292969 180.574219 162.9375 181.316406 C 163.355469 181.476562 163.707031 181.609375 164.0625 181.78125 C 165.414062 182.367188 166.792969 182.925781 168.144531 183.4375 C 168.757812 183.644531 169.328125 183.890625 169.902344 184.074219 C 171.144531 184.535156 172.453125 184.964844 173.683594 185.390625 L 175.390625 185.9375 C 177.171875 186.488281 178.976562 187.207031 180.867188 187.5 C 277.609375 203.425781 300 129.316406 300 129.316406 C 279.839844 158.183594 240.828125 171.9375 199.257812 161.195312 C 196.730469 160.546875 194.902344 160.011719 193.085938 159.425781 L 193.78125 159.621094 C 193.195312 159.464844 192.683594 159.28125 192.121094 159.109375 C 190.855469 158.671875 189.546875 158.242188 188.316406 157.792969 L 186.5625 157.132812 C 185.195312 156.585938 183.804688 156.074219 182.476562 155.488281 C 182.0625 155.304688 181.683594 155.183594 181.367188 155 C 179.660156 154.230469 177.9375 153.476562 176.269531 152.671875 L 173.757812 151.367188 L 172.304688 150.632812 C 171.183594 150.046875 170.144531 149.4375 169.074219 148.816406 C 168.769531 148.671875 168.523438 148.535156 168.28125 148.378906 L 168.316406 148.390625 C 167.023438 147.585938 165.683594 146.804688 164.4375 145.988281 C 164.023438 145.757812 163.644531 145.476562 163.257812 145.230469 L 160.71875 143.585938 C 158.964844 142.367188 157.242188 141.0625 155.5 139.792969 C 155.109375 139.4375 154.730469 139.144531 154.355469 138.828125 C 136.074219 124.523438 121.660156 104.976562 114.816406 82.839844 C 107.609375 59.828125 109.195312 34.023438 121.644531 13.085938 L 106.339844 34.644531 C 87.546875 61.488281 88.609375 97.367188 103.242188 125.757812 C 105.914062 131 108.621094 135.425781 111.609375 139.644531 C 114.390625 143.621094 117.464844 148.28125 121.171875 151.476562 C 122.488281 152.976562 123.902344 154.402344 125.378906 155.855469 Z M 125.378906 155.855469 " fill-opacity="1" fill-rule="nonzero"/><path fill="#000000" d="M 37.023438 213.316406 L 36.976562 213.242188 L 36.890625 213.132812 Z M 37.023438 213.316406 " fill-opacity="1" fill-rule="nonzero"/><path fill="#000000" d="M 87.730469 204.242188 L 87.855469 204.328125 L 87.878906 204.367188 Z M 87.730469 204.242188 " fill-opacity="1" fill-rule="nonzero"/><path fill="#1266a9" d="M 173.976562 11.304688 C 162.890625 27.488281 161.828125 47.585938 169.464844 65.425781 C 177.574219 84.378906 194.144531 99.257812 213.464844 106.304688 C 214.257812 106.609375 215.023438 106.867188 215.839844 107.160156 L 216.914062 107.488281 C 218.035156 107.839844 219.171875 108.257812 220.328125 108.511719 C 273.757812 118.769531 288.21875 81.21875 292.109375 75.695312 C 279.390625 93.867188 258.0625 98.230469 231.890625 91.902344 C 229.328125 91.269531 227.21875 90.597656 225.183594 89.828125 L 225.585938 89.964844 C 222.5 88.878906 220.011719 87.839844 217.585938 86.671875 L 218.046875 86.878906 C 213.046875 84.4375 208.757812 81.804688 204.769531 78.78125 C 181.378906 61.097656 166.914062 27.425781 182.183594 0 Z M 173.976562 11.304688 " fill-opacity="1" fill-rule="nonzero"/></svg>