<svg xmlns="http://www.w3.org/2000/svg" xmlns:xlink="http://www.w3.org/1999/xlink" width="400" zoomAndPan="magnify" viewBox="0 0 300 299.999988" height="400" preserveAspectRatio="xMidYMid meet" version="1.0"><defs><clipPath id="956d85bc8a"><path d="M 81.8125 0 L 218.3125 0 L 218.3125 259 L 81.8125 259 Z M 81.8125 0 " clip-rule="nonzero"/></clipPath><clipPath id="241fe2869d"><path d="M 81.8125 0 L 218.3125 0 L 218.3125 259 L 81.8125 259 Z M 81.8125 0 " clip-rule="nonzero"/></clipPath></defs><g clip-path="url(#956d85bc8a)"><path fill="#689f38" d="M 218.308594 163.636719 C 218.308594 75 150.0625 0 150.0625 0 C 150.0625 0 81.816406 75 81.816406 163.636719 C 81.816406 236.578125 128.003906 254.101562 144.371094 258.019531 L 150.0625 47.726562 L 155.753906 258.019531 C 172.121094 254.101562 218.308594 236.578125 218.308594 163.636719 Z M 218.308594 163.636719 " fill-opacity="1" fill-rule="nonzero"/></g><path fill="#689f38" d="M 144.371094 258.019531 L 143.238281 300 L 156.886719 300 L 155.753906 258.019531 C 152.234375 258.867188 150.0625 259.089844 150.0625 259.089844 C 150.0625 259.089844 147.890625 258.867188 144.371094 258.019531 Z M 144.371094 258.019531 " fill-opacity="1" fill-rule="nonzero"/><g clip-path="url(#241fe2869d)"><path fill="#689f38" d="M 218.308594 163.636719 C 218.308594 75 150.0625 0 150.0625 0 C 150.0625 0 81.816406 75 81.816406 163.636719 C 81.816406 236.578125 128.003906 254.101562 144.371094 258.019531 L 150.0625 47.726562 L 155.753906 258.019531 C 172.121094 254.101562 218.308594 236.578125 218.308594 163.636719 Z M 218.308594 163.636719 " fill-opacity="1" fill-rule="nonzero"/></g><path fill="#689f38" d="M 144.371094 258.019531 L 143.238281 300 L 156.886719 300 L 155.753906 258.019531 C 152.234375 258.867188 150.0625 259.089844 150.0625 259.089844 C 150.0625 259.089844 147.890625 258.867188 144.371094 258.019531 Z M 144.371094 258.019531 " fill-opacity="1" fill-rule="nonzero"/></svg>