<svg xmlns="http://www.w3.org/2000/svg" xmlns:xlink="http://www.w3.org/1999/xlink" width="400" zoomAndPan="magnify" viewBox="0 0 300 299.999988" height="400" preserveAspectRatio="xMidYMid meet" version="1.0"><path fill="#00678c" d="M 276.71875 234.125 C 260.65625 233.675781 248.191406 235.324219 237.746094 239.71875 C 234.738281 240.925781 229.910156 240.925781 229.515625 244.710938 C 231.121094 246.300781 231.316406 248.898438 232.722656 251.101562 C 235.132812 255.097656 239.355469 260.480469 243.171875 263.273438 L 256.027344 272.460938 C 263.859375 277.246094 272.699219 280.042969 280.332031 284.835938 C 284.753906 287.632812 289.167969 291.226562 293.589844 294.222656 C 295.84375 295.820312 297.207031 298.421875 300.019531 299.414062 L 300.019531 298.8125 C 298.617188 297.019531 298.210938 294.425781 296.8125 292.421875 L 290.777344 286.636719 C 284.957031 278.847656 277.71875 272.054688 269.886719 266.472656 C 263.457031 262.078125 249.398438 256.089844 246.785156 248.707031 L 246.390625 248.257812 C 250.800781 247.8125 256.027344 246.257812 260.25 245.058594 C 267.085938 243.269531 273.308594 243.664062 280.332031 241.871094 L 289.980469 239.074219 L 289.980469 237.28125 C 286.363281 233.691406 283.753906 228.898438 279.9375 225.503906 C 269.695312 216.722656 258.4375 208.132812 246.785156 200.949219 C 240.558594 196.957031 232.523438 194.355469 225.894531 190.96875 C 223.476562 189.769531 219.464844 189.171875 218.058594 187.175781 C 214.433594 182.789062 212.429688 176.996094 209.820312 171.800781 L 193.347656 137.0625 C 189.734375 129.277344 187.519531 121.492188 183.105469 114.304688 C 162.410156 80.363281 139.90625 59.800781 105.351562 39.632812 C 97.925781 35.441406 89.085938 33.636719 79.6875 31.445312 L 64.621094 30.640625 C 61.402344 29.242188 58.191406 25.449219 55.378906 23.652344 C 43.929688 16.464844 14.394531 0.890625 5.953125 21.414062 C 0.527344 34.390625 13.988281 47.164062 18.558594 53.757812 C 21.980469 58.347656 26.394531 63.539062 28.8125 68.730469 C 30.164062 72.121094 30.613281 75.71875 32.023438 79.3125 C 35.234375 88.09375 38.25 97.882812 42.46875 106.070312 C 44.722656 110.261719 47.085938 114.664062 49.898438 118.453125 C 51.507812 120.691406 54.320312 121.648438 54.917969 125.242188 C 52.105469 129.234375 51.910156 135.21875 50.304688 140.21875 C 43.066406 162.777344 45.882812 190.726562 56.125 207.339844 C 59.34375 212.328125 66.933594 223.3125 77.226562 219.117188 C 86.265625 215.523438 84.25 204.144531 86.859375 194.160156 C 87.46875 191.765625 87.0625 190.167969 88.265625 188.566406 L 88.265625 189.015625 L 96.503906 205.585938 C 102.734375 215.367188 113.585938 225.550781 122.621094 232.34375 C 127.4375 235.9375 131.257812 242.128906 137.28125 244.320312 L 137.28125 243.71875 L 136.886719 243.71875 C 135.679688 241.929688 133.867188 241.121094 132.261719 239.726562 C 128.644531 236.132812 124.628906 231.738281 121.816406 227.746094 C 113.382812 216.570312 105.953125 204.1875 99.320312 191.414062 C 96.101562 185.222656 93.285156 178.4375 90.683594 172.246094 C 89.46875 169.847656 89.46875 166.25 87.464844 165.0625 C 84.449219 169.445312 80.035156 173.25 77.816406 178.636719 C 73.996094 187.21875 73.601562 197.800781 72.195312 208.785156 C 71.386719 208.984375 71.746094 208.785156 71.386719 209.230469 C 64.964844 207.636719 62.75 201.042969 60.339844 195.457031 C 54.316406 181.28125 53.308594 158.523438 58.53125 142.148438 C 59.933594 137.957031 65.96875 124.78125 63.558594 120.789062 C 62.34375 116.992188 58.335938 114.800781 56.121094 111.800781 C 53.511719 108.007812 50.703125 103.21875 48.894531 99.027344 C 44.078125 87.839844 41.667969 75.46875 36.441406 64.285156 C 34.023438 59.09375 29.808594 53.703125 26.390625 48.914062 C 22.574219 43.523438 18.363281 39.726562 15.34375 33.34375 C 14.339844 31.105469 12.9375 27.550781 14.542969 25.152344 C 14.941406 23.554688 15.75 22.917969 17.347656 22.558594 C 19.960938 20.320312 27.398438 23.160156 30.011719 24.347656 C 37.441406 27.347656 43.667969 30.140625 49.894531 34.328125 C 52.707031 36.324219 55.726562 40.117188 59.339844 41.121094 L 63.566406 41.121094 C 69.996094 42.515625 77.222656 41.566406 83.242188 43.355469 C 93.890625 46.757812 103.53125 51.742188 112.175781 57.140625 C 138.488281 73.710938 160.191406 97.269531 174.851562 125.421875 C 177.261719 130.015625 178.265625 134.207031 180.480469 139 C 184.703125 148.785156 189.925781 158.765625 194.136719 168.355469 C 198.359375 177.738281 202.375 187.328125 208.402344 195.113281 C 211.417969 199.304688 223.46875 201.5 228.886719 203.695312 C 232.910156 205.484375 239.132812 207.097656 242.757812 209.289062 C 249.582031 213.480469 256.414062 218.273438 262.839844 222.867188 C 266.050781 225.253906 276.097656 230.25 276.699219 234.230469 Z M 71.847656 60.628906 C 69.0625 60.605469 66.316406 60.9375 63.617188 61.628906 L 63.617188 62.074219 L 64.015625 62.074219 C 65.621094 65.269531 68.4375 67.46875 70.445312 70.265625 L 75.070312 79.847656 L 75.464844 79.402344 C 78.277344 77.40625 79.6875 74.210938 79.6875 69.421875 C 78.480469 68.027344 78.285156 66.625 77.277344 65.230469 C 76.074219 63.234375 73.460938 62.230469 71.847656 60.636719 Z M 71.847656 60.628906 " fill-opacity="1" fill-rule="evenodd"/></svg>