<svg xmlns="http://www.w3.org/2000/svg" xmlns:xlink="http://www.w3.org/1999/xlink" width="400" zoomAndPan="magnify" viewBox="0 0 300 299.999988" height="400" preserveAspectRatio="xMidYMid meet" version="1.0"><path fill="#8dca4a" d="M 137.539062 3.957031 C 144.957031 -0.242188 154.414062 -0.257812 161.644531 3.957031 L 272.371094 66.378906 C 279.296875 70.269531 283.933594 77.992188 283.867188 85.976562 L 283.867188 211.128906 C 283.914062 219.445312 278.824219 227.332031 271.519531 231.152344 L 161.382812 293.285156 C 160.445312 293.800781 159.480469 294.257812 158.480469 294.644531 C 157.484375 295.035156 156.464844 295.355469 155.421875 295.609375 C 154.382812 295.863281 153.328125 296.042969 152.261719 296.15625 C 151.199219 296.269531 150.128906 296.3125 149.058594 296.28125 C 147.988281 296.253906 146.925781 296.152344 145.867188 295.980469 C 144.808594 295.808594 143.769531 295.566406 142.742188 295.257812 C 141.71875 294.949219 140.71875 294.570312 139.742188 294.125 C 138.769531 293.683594 137.828125 293.175781 136.917969 292.609375 L 103.871094 273.511719 C 101.617188 272.164062 99.085938 271.101562 97.492188 268.921875 C 98.902344 267.03125 101.402344 266.789062 103.441406 265.953125 C 108.042969 264.488281 112.25 262.246094 116.476562 259.875 C 117.542969 259.132812 118.851562 259.410156 119.871094 260.078125 L 148.054688 276.375 C 150.066406 277.535156 152.105469 276.003906 153.828125 275.03125 L 261.96875 214.003906 C 263.304688 213.351562 264.046875 211.945312 263.933594 210.480469 L 263.933594 86.53125 C 264.082031 84.863281 263.128906 83.34375 261.617188 82.664062 L 151.761719 20.804688 C 151.445312 20.585938 151.101562 20.417969 150.734375 20.300781 C 150.367188 20.1875 149.992188 20.128906 149.609375 20.128906 C 149.222656 20.128906 148.847656 20.183594 148.476562 20.296875 C 148.109375 20.410156 147.769531 20.578125 147.449219 20.792969 L 37.75 82.785156 C 36.269531 83.464844 35.25 84.964844 35.433594 86.632812 L 35.433594 210.582031 C 35.304688 212.046875 36.082031 213.425781 37.425781 214.058594 L 66.742188 230.605469 C 72.246094 233.574219 79.003906 235.242188 85.070312 233.0625 C 85.726562 232.8125 86.363281 232.515625 86.980469 232.171875 C 87.59375 231.828125 88.179688 231.4375 88.734375 231.003906 C 89.289062 230.566406 89.808594 230.09375 90.289062 229.582031 C 90.773438 229.066406 91.214844 228.519531 91.613281 227.941406 C 92.015625 227.359375 92.367188 226.753906 92.675781 226.121094 C 92.984375 225.484375 93.242188 224.832031 93.449219 224.160156 C 93.65625 223.484375 93.8125 222.800781 93.917969 222.101562 C 94.023438 221.40625 94.074219 220.707031 94.070312 220 L 94.097656 96.792969 C 93.96875 94.96875 95.691406 93.457031 97.464844 93.640625 L 111.554688 93.640625 C 113.410156 93.597656 114.863281 95.5625 114.613281 97.398438 L 114.585938 221.382812 C 114.59375 232.394531 110.070312 244.371094 99.882812 249.777344 C 87.332031 256.265625 71.8125 254.902344 59.40625 248.664062 L 27.886719 231.234375 C 20.472656 227.527344 15.492188 219.519531 15.539062 211.210938 L 15.539062 86.058594 C 15.546875 85.046875 15.621094 84.039062 15.761719 83.035156 C 15.90625 82.035156 16.113281 81.046875 16.386719 80.070312 C 16.660156 79.097656 16.996094 78.144531 17.398438 77.214844 C 17.796875 76.285156 18.257812 75.382812 18.777344 74.515625 C 19.296875 73.648438 19.875 72.816406 20.503906 72.023438 C 21.136719 71.234375 21.816406 70.484375 22.546875 69.785156 C 23.277344 69.082031 24.050781 68.433594 24.867188 67.835938 C 25.683594 67.238281 26.535156 66.695312 27.425781 66.210938 Z M 169.46875 90.710938 C 185.480469 89.785156 202.621094 90.101562 217.027344 97.988281 C 228.179688 104.035156 234.363281 116.714844 234.566406 129.121094 C 234.25 130.789062 232.507812 131.714844 230.914062 131.597656 C 226.277344 131.585938 221.625 131.660156 216.972656 131.566406 C 214.996094 131.640625 213.855469 129.824219 213.605469 128.082031 C 212.269531 122.148438 209.035156 116.28125 203.453125 113.417969 C 194.886719 109.125 184.949219 109.335938 175.605469 109.429688 C 168.78125 109.800781 161.449219 110.386719 155.671875 114.390625 C 151.222656 117.429688 149.890625 123.660156 151.472656 128.5 C 152.957031 132.050781 157.0625 133.191406 160.410156 134.246094 C 179.710938 139.289062 200.152344 138.882812 219.09375 145.4375 C 226.925781 148.144531 234.59375 153.410156 237.28125 161.613281 C 240.785156 172.609375 239.257812 185.753906 231.441406 194.582031 C 225.101562 201.847656 215.867188 205.707031 206.644531 207.949219 C 194.378906 210.683594 181.660156 210.75 169.207031 209.523438 C 157.5 208.191406 145.320312 205.113281 136.28125 197.140625 C 128.546875 190.425781 124.785156 179.96875 125.15625 169.882812 C 125.246094 168.179688 126.945312 166.992188 128.585938 167.128906 L 142.492188 167.128906 C 144.363281 167 145.734375 168.613281 145.828125 170.375 C 146.691406 175.9375 148.8125 181.964844 153.746094 185.207031 C 163.257812 191.34375 175.1875 190.917969 186.070312 191.09375 C 195.09375 190.695312 205.214844 190.574219 212.585938 184.605469 C 216.480469 181.203125 217.621094 175.519531 216.570312 170.625 C 215.433594 166.492188 211.011719 164.570312 207.300781 163.207031 C 188.25 157.183594 167.578125 159.371094 148.710938 152.546875 C 141.054688 149.839844 133.648438 144.722656 130.707031 136.851562 C 126.601562 125.726562 128.484375 111.941406 137.132812 103.414062 C 145.476562 94.929688 157.714844 91.660156 169.300781 90.488281 Z M 169.46875 90.710938 " fill-opacity="1" fill-rule="nonzero"/></svg>