<svg xmlns="http://www.w3.org/2000/svg" xmlns:xlink="http://www.w3.org/1999/xlink" width="400" zoomAndPan="magnify" viewBox="0 0 300 299.999988" height="400" preserveAspectRatio="xMidYMid meet" version="1.0"><path fill="#53c1de" d="M 176.789062 149.945312 C 176.789062 135.582031 164.796875 123.9375 150 123.9375 C 135.207031 123.9375 123.210938 135.582031 123.210938 149.945312 C 123.210938 164.3125 135.207031 175.957031 150 175.957031 C 164.796875 175.957031 176.789062 164.3125 176.789062 149.945312 Z M 176.789062 149.945312 " fill-opacity="1" fill-rule="nonzero"/><path fill="#53c1de" d="M 237.003906 101.660156 C 242.660156 79.339844 249.773438 37.953125 224.703125 23.921875 C 199.753906 9.949219 167.285156 36.71875 150.140625 52.789062 C 133.042969 36.878906 99.664062 10.222656 74.617188 24.300781 C 49.675781 38.316406 57.367188 79.019531 63.148438 101.480469 C 39.882812 107.894531 0 121.714844 0 149.945312 C 0 178.097656 39.839844 193.132812 62.96875 199.542969 C 57.164062 222.125 49.859375 262.246094 74.832031 276.234375 C 99.972656 290.308594 133.25 264.285156 150.554688 248.039062 C 167.808594 264.203125 199.964844 290.394531 224.921875 276.371094 C 249.957031 262.300781 243.4375 221.464844 237.652344 198.878906 C 260.074219 192.453125 300 177.746094 300 149.945312 C 300 121.984375 259.902344 108.054688 237.003906 101.660156 Z M 234.160156 186.90625 C 230.363281 175.238281 225.238281 162.828125 218.972656 150.007812 C 224.953125 137.492188 229.882812 125.242188 233.570312 113.648438 C 250.359375 118.371094 287.183594 129.171875 287.183594 149.945312 C 287.183594 170.914062 251.847656 181.816406 234.160156 186.90625 Z M 218.5 265.601562 C 199.878906 276.066406 172.222656 251.019531 159.476562 239.117188 C 167.933594 230.136719 176.378906 219.703125 184.625 208.113281 C 199.128906 206.867188 212.828125 204.824219 225.257812 202.035156 C 229.324219 218.011719 237.203125 255.089844 218.5 265.601562 Z M 81.234375 265.453125 C 62.613281 255.027344 71.125 219.226562 75.394531 202.589844 C 87.683594 205.230469 101.285156 207.128906 115.824219 208.273438 C 124.121094 219.613281 132.816406 230.035156 141.574219 239.164062 C 130.753906 249.328125 99.945312 275.925781 81.234375 265.453125 Z M 12.816406 149.945312 C 12.816406 128.898438 49.421875 118.175781 66.589844 113.464844 C 70.34375 125.320312 75.269531 137.714844 81.210938 150.25 C 75.191406 162.96875 70.199219 175.5625 66.410156 187.558594 C 50.035156 183.007812 12.816406 171.007812 12.816406 149.945312 Z M 81.035156 35.070312 C 99.734375 24.5625 128.746094 50.152344 141.160156 61.671875 C 132.445312 70.757812 123.832031 81.101562 115.601562 92.375 C 101.492188 93.644531 87.988281 95.683594 75.570312 98.414062 C 70.914062 80.300781 62.359375 45.566406 81.035156 35.070312 Z M 193.792969 105.898438 C 203.363281 107.070312 212.535156 108.632812 221.148438 110.539062 C 218.5625 118.585938 215.339844 126.996094 211.546875 135.621094 C 206.042969 125.488281 200.140625 115.558594 193.792969 105.898438 Z M 150.144531 70.5625 C 156.054688 76.777344 161.972656 83.722656 167.796875 91.253906 C 155.984375 90.710938 144.152344 90.707031 132.339844 91.246094 C 138.167969 83.785156 144.140625 76.851562 150.144531 70.5625 Z M 88.566406 135.613281 C 84.832031 127.019531 81.640625 118.570312 79.03125 110.410156 C 87.589844 108.550781 96.71875 107.03125 106.230469 105.875 C 99.867188 115.511719 93.972656 125.4375 88.566406 135.613281 Z M 106.503906 194.902344 C 96.679688 193.839844 87.414062 192.398438 78.855469 190.589844 C 81.503906 182.285156 84.769531 173.652344 88.578125 164.875 C 94.058594 175.152344 100.046875 185.175781 106.503906 194.902344 Z M 150.496094 230.210938 C 144.425781 223.847656 138.363281 216.808594 132.449219 209.238281 C 144.328125 209.691406 156.230469 209.691406 168.109375 209.175781 C 162.269531 216.882812 156.367188 223.933594 150.496094 230.210938 Z M 211.667969 164.429688 C 215.675781 173.300781 219.058594 181.886719 221.742188 190.050781 C 213.042969 191.976562 203.652344 193.53125 193.757812 194.683594 C 200.148438 184.839844 206.148438 174.757812 211.667969 164.429688 Z M 177.472656 196.191406 C 159.300781 197.449219 141.015625 197.4375 122.839844 196.292969 C 112.507812 181.644531 103.3125 166.238281 95.378906 150.246094 C 103.277344 134.285156 112.402344 118.910156 122.683594 104.285156 C 140.875 102.949219 159.179688 102.945312 177.367188 104.292969 C 187.5625 118.917969 196.675781 134.253906 204.757812 150.066406 C 196.769531 166.019531 187.59375 181.425781 177.472656 196.191406 Z M 218.304688 34.699219 C 237.007812 45.171875 228.679688 82.371094 224.59375 98.542969 C 212.148438 95.753906 198.632812 93.679688 184.484375 92.390625 C 176.238281 80.996094 167.699219 70.632812 159.125 61.664062 C 171.695312 49.898438 199.78125 24.328125 218.304688 34.699219 Z M 218.304688 34.699219 " fill-opacity="1" fill-rule="evenodd"/><path fill="#53c1de" d="M 176.789062 149.945312 C 176.789062 135.582031 164.796875 123.9375 150 123.9375 C 135.207031 123.9375 123.210938 135.582031 123.210938 149.945312 C 123.210938 164.3125 135.207031 175.957031 150 175.957031 C 164.796875 175.957031 176.789062 164.3125 176.789062 149.945312 Z M 176.789062 149.945312 " fill-opacity="1" fill-rule="nonzero"/><path fill="#53c1de" d="M 237.003906 101.660156 C 242.660156 79.339844 249.773438 37.953125 224.703125 23.921875 C 199.753906 9.949219 167.285156 36.71875 150.140625 52.789062 C 133.042969 36.878906 99.664062 10.222656 74.617188 24.300781 C 49.675781 38.316406 57.367188 79.019531 63.148438 101.480469 C 39.882812 107.894531 0 121.714844 0 149.945312 C 0 178.097656 39.839844 193.132812 62.96875 199.542969 C 57.164062 222.125 49.859375 262.246094 74.832031 276.234375 C 99.972656 290.308594 133.25 264.285156 150.554688 248.039062 C 167.808594 264.203125 199.964844 290.394531 224.921875 276.371094 C 249.957031 262.300781 243.4375 221.464844 237.652344 198.878906 C 260.074219 192.453125 300 177.746094 300 149.945312 C 300 121.984375 259.902344 108.054688 237.003906 101.660156 Z M 234.160156 186.90625 C 230.363281 175.238281 225.238281 162.828125 218.972656 150.007812 C 224.953125 137.492188 229.882812 125.242188 233.570312 113.648438 C 250.359375 118.371094 287.183594 129.171875 287.183594 149.945312 C 287.183594 170.914062 251.847656 181.816406 234.160156 186.90625 Z M 218.5 265.601562 C 199.878906 276.066406 172.222656 251.019531 159.476562 239.117188 C 167.933594 230.136719 176.378906 219.703125 184.625 208.113281 C 199.128906 206.867188 212.828125 204.824219 225.257812 202.035156 C 229.324219 218.011719 237.203125 255.089844 218.5 265.601562 Z M 81.234375 265.453125 C 62.613281 255.027344 71.125 219.226562 75.394531 202.589844 C 87.683594 205.230469 101.285156 207.128906 115.824219 208.273438 C 124.121094 219.613281 132.816406 230.035156 141.574219 239.164062 C 130.753906 249.328125 99.945312 275.925781 81.234375 265.453125 Z M 12.816406 149.945312 C 12.816406 128.898438 49.421875 118.175781 66.589844 113.464844 C 70.34375 125.320312 75.269531 137.714844 81.210938 150.25 C 75.191406 162.96875 70.199219 175.5625 66.410156 187.558594 C 50.035156 183.007812 12.816406 171.007812 12.816406 149.945312 Z M 81.035156 35.070312 C 99.734375 24.5625 128.746094 50.152344 141.160156 61.671875 C 132.445312 70.757812 123.832031 81.101562 115.601562 92.375 C 101.492188 93.644531 87.988281 95.683594 75.570312 98.414062 C 70.914062 80.300781 62.359375 45.566406 81.035156 35.070312 Z M 193.792969 105.898438 C 203.363281 107.070312 212.535156 108.632812 221.148438 110.539062 C 218.5625 118.585938 215.339844 126.996094 211.546875 135.621094 C 206.042969 125.488281 200.140625 115.558594 193.792969 105.898438 Z M 150.144531 70.5625 C 156.054688 76.777344 161.972656 83.722656 167.796875 91.253906 C 155.984375 90.710938 144.152344 90.707031 132.339844 91.246094 C 138.167969 83.785156 144.140625 76.851562 150.144531 70.5625 Z M 88.566406 135.613281 C 84.832031 127.019531 81.640625 118.570312 79.03125 110.410156 C 87.589844 108.550781 96.71875 107.03125 106.230469 105.875 C 99.867188 115.511719 93.972656 125.4375 88.566406 135.613281 Z M 106.503906 194.902344 C 96.679688 193.839844 87.414062 192.398438 78.855469 190.589844 C 81.503906 182.285156 84.769531 173.652344 88.578125 164.875 C 94.058594 175.152344 100.046875 185.175781 106.503906 194.902344 Z M 150.496094 230.210938 C 144.425781 223.847656 138.363281 216.808594 132.449219 209.238281 C 144.328125 209.691406 156.230469 209.691406 168.109375 209.175781 C 162.269531 216.882812 156.367188 223.933594 150.496094 230.210938 Z M 211.667969 164.429688 C 215.675781 173.300781 219.058594 181.886719 221.742188 190.050781 C 213.042969 191.976562 203.652344 193.53125 193.757812 194.683594 C 200.148438 184.839844 206.148438 174.757812 211.667969 164.429688 Z M 177.472656 196.191406 C 159.300781 197.449219 141.015625 197.4375 122.839844 196.292969 C 112.507812 181.644531 103.3125 166.238281 95.378906 150.246094 C 103.277344 134.285156 112.402344 118.910156 122.683594 104.285156 C 140.875 102.949219 159.179688 102.945312 177.367188 104.292969 C 187.5625 118.917969 196.675781 134.253906 204.757812 150.066406 C 196.769531 166.019531 187.59375 181.425781 177.472656 196.191406 Z M 218.304688 34.699219 C 237.007812 45.171875 228.679688 82.371094 224.59375 98.542969 C 212.148438 95.753906 198.632812 93.679688 184.484375 92.390625 C 176.238281 80.996094 167.699219 70.632812 159.125 61.664062 C 171.695312 49.898438 199.78125 24.328125 218.304688 34.699219 Z M 218.304688 34.699219 " fill-opacity="1" fill-rule="evenodd"/></svg>